<svg width="1280" height="120" viewBox="0 0 1280 120" fill="none" xmlns="http://www.w3.org/2000/svg">
<rect width="1280" height="120" fill="#2C343E"/>
<mask id="mask0_0_1980" style="mask-type:alpha" maskUnits="userSpaceOnUse" x="0" y="0" width="1280" height="120">
<rect width="1280" height="120" fill="white"/>
</mask>
<g mask="url(#mask0_0_1980)">
<path d="M1097.67 47H1076.33C1075.59 47 1075 47.593 1075 48.325V69.676C1075 70.407 1075.59 71 1076.33 71H1087.82V61.706H1084.69V58.084H1087.82V55.413C1087.82 52.313 1089.71 50.625 1092.48 50.625C1093.8 50.625 1094.94 50.724 1095.27 50.768V54.008L1093.36 54.009C1091.85 54.009 1091.56 54.724 1091.56 55.772V58.085H1095.15L1094.68 61.707H1091.56V71H1097.68C1098.41 71 1099 70.407 1099 69.675V48.325C1099 47.593 1098.41 47 1097.67 47Z" fill="#FDD6BA"/>
<path fill-rule="evenodd" clip-rule="evenodd" d="M1183 47C1179.74 47 1179.33 47.014 1178.05 47.072C1173.7 47.272 1171.27 49.69 1171.07 54.052C1171.01 55.333 1171 55.741 1171 59C1171 62.259 1171.01 62.668 1171.07 63.948C1171.27 68.306 1173.69 70.728 1178.05 70.928C1179.33 70.986 1179.74 71 1183 71C1186.26 71 1186.67 70.986 1187.95 70.928C1192.3 70.728 1194.73 68.31 1194.93 63.948C1194.99 62.668 1195 62.259 1195 59C1195 55.741 1194.99 55.333 1194.93 54.053C1194.73 49.699 1192.31 47.273 1187.95 47.073C1186.67 47.014 1186.26 47 1183 47ZM1183 49.163C1186.2 49.163 1186.58 49.175 1187.85 49.233C1191.1 49.381 1192.62 50.924 1192.77 54.152C1192.83 55.417 1192.84 55.797 1192.84 59.001C1192.84 62.206 1192.83 62.585 1192.77 63.85C1192.62 67.075 1191.1 68.621 1187.85 68.769C1186.58 68.827 1186.21 68.839 1183 68.839C1179.8 68.839 1179.42 68.827 1178.15 68.769C1174.89 68.62 1173.38 67.07 1173.23 63.849C1173.17 62.584 1173.16 62.205 1173.16 59C1173.16 55.796 1173.17 55.417 1173.23 54.151C1173.38 50.924 1174.9 49.38 1178.15 49.232C1179.42 49.175 1179.8 49.163 1183 49.163ZM1176.84 59C1176.84 55.597 1179.6 52.838 1183 52.838C1186.4 52.838 1189.16 55.597 1189.16 59C1189.16 62.404 1186.4 65.163 1183 65.163C1179.6 65.163 1176.84 62.403 1176.84 59ZM1183 63C1180.79 63 1179 61.21 1179 59C1179 56.791 1180.79 55 1183 55C1185.21 55 1187 56.791 1187 59C1187 61.21 1185.21 63 1183 63ZM1187.97 52.595C1187.97 51.8 1188.61 51.155 1189.41 51.155C1190.2 51.155 1190.85 51.8 1190.85 52.595C1190.85 53.39 1190.2 54.035 1189.41 54.035C1188.61 54.035 1187.97 53.39 1187.97 52.595Z" fill="#FEFCF7"/>
<path d="M1147 51.557C1146.12 51.949 1145.17 52.213 1144.17 52.332C1145.19 51.723 1145.97 50.758 1146.34 49.608C1145.39 50.172 1144.33 50.582 1143.21 50.803C1142.31 49.846 1141.03 49.248 1139.62 49.248C1136.44 49.248 1134.1 52.214 1134.82 55.293C1130.73 55.088 1127.1 53.128 1124.67 50.149C1123.38 52.362 1124 55.257 1126.19 56.723C1125.39 56.697 1124.63 56.476 1123.96 56.107C1123.91 58.388 1125.55 60.522 1127.91 60.997C1127.22 61.185 1126.46 61.229 1125.69 61.081C1126.32 63.037 1128.13 64.46 1130.29 64.5C1128.22 66.123 1125.61 66.848 1123 66.54C1125.18 67.937 1127.77 68.752 1130.55 68.752C1139.69 68.752 1144.85 61.031 1144.54 54.106C1145.5 53.411 1146.34 52.544 1147 51.557Z" fill="#FEFCF7"/>
<path fill-rule="evenodd" clip-rule="evenodd" d="M160.651 70.3034C160.651 70.8102 160.396 71.0637 159.885 71.0637H150.888C150.671 71.0637 150.494 71.0003 150.359 70.8736C150.223 70.7469 150.155 70.5678 150.155 70.3364C150.155 70.1381 150.201 69.9783 150.293 69.8571C150.386 69.7359 150.53 69.6367 150.725 69.5595L151.426 69.3447C151.6 69.2896 151.736 69.1849 151.834 69.0306C151.931 68.8764 151.98 68.656 151.98 68.3695V58.8157C151.98 58.6615 151.942 58.532 151.866 58.4273C151.79 58.3226 151.649 58.2262 151.442 58.1381L150.497 57.824C150.247 57.7028 150.068 57.5733 149.959 57.4356C149.851 57.2978 149.796 57.1298 149.796 56.9315C149.796 56.7331 149.864 56.5706 150 56.4438L150.053 56.3993C150.184 56.3023 150.353 56.2538 150.562 56.2538H151.993L151.981 56.1572C151.951 55.964 151.874 55.7786 151.752 55.6009C151.589 55.364 151.404 55.0967 151.198 54.7992C150.992 54.5017 150.807 54.1463 150.644 53.7331C150.481 53.3199 150.399 52.8102 150.399 52.2042C150.399 50.7607 150.888 49.6064 151.866 48.7414C152.844 47.8764 154.235 47.4438 156.039 47.4438C157.201 47.4438 158.166 47.6312 158.932 48.0058C159.698 48.3805 160.271 48.8791 160.651 49.5017C161.032 50.1243 161.222 50.8047 161.222 51.543C161.222 52.4135 160.996 53.0664 160.545 53.5017C160.094 53.937 159.516 54.1546 158.809 54.1546C158.027 54.1546 157.397 53.9011 156.919 53.3943C156.441 52.8874 156.202 52.2152 156.202 51.3777V49.9067C156.202 49.521 156.126 49.2372 155.973 49.0554C155.821 48.8736 155.588 48.7827 155.273 48.7827C154.871 48.7827 154.566 48.9204 154.36 49.1959C154.153 49.4714 154.05 49.8681 154.05 50.386C154.05 50.9149 154.172 51.4108 154.417 51.8736C154.661 52.3364 154.963 52.7689 155.322 53.1711C155.68 53.5733 156.039 53.959 156.397 54.3281C156.756 54.6973 157.057 55.0609 157.302 55.4191L157.372 55.5264C157.504 55.741 157.592 55.9545 157.636 56.1671L157.65 56.2538H160.064C160.314 56.2538 160.507 56.3061 160.643 56.4108C160.779 56.5155 160.847 56.678 160.847 56.8984C160.847 57.229 160.706 57.4989 160.423 57.7083C160.141 57.9177 159.695 58.0224 159.087 58.0224H157.929V68.3199C157.929 68.6284 157.976 68.8653 158.068 69.0306C158.16 69.1959 158.31 69.2951 158.516 69.3281L159.918 69.543C160.168 69.5761 160.352 69.656 160.472 69.7827C160.591 69.9094 160.651 70.083 160.651 70.3034ZM128.559 70.6835C127.581 71.1573 126.44 71.3943 125.136 71.3943C123.756 71.3943 122.52 71.1022 121.428 70.5182C120.336 69.9342 119.475 69.0885 118.845 67.981C118.215 66.8736 117.9 65.5265 117.9 63.9397C117.9 62.408 118.228 61.0389 118.886 59.8323C119.543 58.6257 120.459 57.6725 121.632 56.9728C122.806 56.273 124.175 55.9232 125.739 55.9232C127.076 55.9232 128.203 56.1215 129.121 56.5182C130.04 56.9149 130.74 57.4521 131.224 58.1298C131.707 58.8075 131.949 59.5651 131.949 60.4025C131.949 61.2841 131.697 61.9755 131.191 62.4769C130.686 62.9783 129.999 63.229 129.13 63.229C128.239 63.229 127.562 62.9728 127.1 62.4604C126.639 61.948 126.408 61.2455 126.408 60.3529V59.2951C126.408 58.7551 126.31 58.3474 126.114 58.0719C125.919 57.7965 125.642 57.6587 125.283 57.6587C124.925 57.6587 124.601 57.8047 124.313 58.0967C124.025 58.3888 123.803 58.8268 123.645 59.4108C123.488 59.9948 123.409 60.7166 123.409 61.5761C123.409 62.8102 123.591 63.8461 123.955 64.6835C124.319 65.521 124.816 66.1491 125.446 66.5678C126.076 66.9865 126.793 67.1959 127.597 67.1959C128.402 67.1959 129.075 67.0775 129.619 66.8405C130.162 66.6036 130.58 66.2042 130.874 65.6422C131.037 65.4879 131.164 65.3888 131.257 65.3447C131.349 65.3006 131.439 65.2786 131.525 65.2786C131.634 65.2896 131.724 65.3419 131.794 65.4356C131.865 65.5292 131.895 65.6753 131.884 65.8736C131.797 66.9535 131.466 67.9067 130.89 68.7331C130.314 69.5595 129.537 70.2097 128.559 70.6835ZM145.127 70.3529C143.904 71.0251 142.484 71.3612 140.865 71.3612C139.289 71.3612 137.906 71.0334 136.717 70.3777C135.527 69.7221 134.6 68.8157 133.938 67.6587C133.275 66.5017 132.943 65.1629 132.943 63.6422C132.943 62.1876 133.291 60.8791 133.987 59.7166C134.682 58.554 135.644 57.6312 136.871 56.948C138.099 56.2648 139.512 55.9232 141.109 55.9232C142.695 55.9232 144.081 56.2538 145.265 56.9149C146.45 57.5761 147.373 58.4907 148.036 59.6587C148.699 60.8268 149.03 62.1766 149.03 63.7083C149.03 65.1629 148.685 66.4659 147.995 67.6174C147.305 68.7689 146.349 69.6808 145.127 70.3529ZM142.103 69.6422C141.766 69.7083 141.438 69.5595 141.117 69.1959C140.797 68.8323 140.492 68.2207 140.205 67.3612C139.917 66.5017 139.642 65.3722 139.381 63.9728C139.132 62.5733 138.99 61.4218 138.958 60.5182C138.925 59.6146 138.99 58.9315 139.153 58.4686C139.316 58.0058 139.566 57.7359 139.903 57.6587C140.24 57.5926 140.569 57.7414 140.889 58.105C141.21 58.4686 141.517 59.0802 141.81 59.9397C142.103 60.7992 142.38 61.9287 142.641 63.3281C142.902 64.7276 143.046 65.8819 143.073 66.791C143.1 67.7 143.03 68.386 142.861 68.8488C142.693 69.3116 142.44 69.5761 142.103 69.6422ZM171.262 71.0637C171.772 71.0637 172.028 70.8102 172.028 70.3034C172.028 70.083 171.968 69.9094 171.848 69.7827C171.729 69.656 171.544 69.5761 171.294 69.543L169.893 69.3281C169.686 69.2951 169.537 69.1959 169.444 69.0306C169.352 68.8653 169.306 68.6284 169.306 68.3199V58.0224H170.463C171.071 58.0224 171.517 57.9177 171.799 57.7083C172.082 57.4989 172.223 57.229 172.223 56.8984C172.223 56.678 172.155 56.5155 172.02 56.4108C171.884 56.3061 171.691 56.2538 171.441 56.2538H169.027L169.012 56.1671C168.968 55.9545 168.88 55.741 168.748 55.5264L168.678 55.4191C168.434 55.0609 168.132 54.6973 167.774 54.3281C167.415 53.959 167.057 53.5733 166.698 53.1711C166.339 52.7689 166.038 52.3364 165.793 51.8736C165.549 51.4108 165.427 50.9149 165.427 50.386C165.427 49.8681 165.53 49.4714 165.736 49.1959C165.943 48.9204 166.247 48.7827 166.649 48.7827C166.964 48.7827 167.198 48.8736 167.35 49.0554C167.502 49.2372 167.578 49.521 167.578 49.9067V51.3777C167.578 52.2152 167.817 52.8874 168.295 53.3943C168.773 53.9011 169.404 54.1546 170.186 54.1546C170.892 54.1546 171.471 53.937 171.922 53.5017C172.373 53.0664 172.598 52.4135 172.598 51.543C172.598 50.8047 172.408 50.1243 172.028 49.5017C171.647 48.8791 171.074 48.3805 170.308 48.0058C169.542 47.6312 168.578 47.4438 167.415 47.4438C165.611 47.4438 164.221 47.8764 163.243 48.7414C162.265 49.6064 161.776 50.7607 161.776 52.2042C161.776 52.8102 161.857 53.3199 162.02 53.7331C162.183 54.1463 162.368 54.5017 162.574 54.7992C162.781 55.0967 162.966 55.364 163.129 55.6009C163.251 55.7786 163.327 55.964 163.358 56.1572L163.369 56.2538H161.939C161.73 56.2538 161.56 56.3023 161.43 56.3993L161.376 56.4438C161.241 56.5706 161.173 56.7331 161.173 56.9315C161.173 57.1298 161.227 57.2978 161.336 57.4356C161.444 57.5733 161.624 57.7028 161.874 57.824L162.819 58.1381C163.025 58.2262 163.167 58.3226 163.243 58.4273C163.319 58.532 163.357 58.6615 163.357 58.8157V68.3695C163.357 68.656 163.308 68.8764 163.21 69.0306C163.112 69.1849 162.976 69.2896 162.803 69.3447L162.102 69.5595C161.906 69.6367 161.762 69.7359 161.67 69.8571C161.578 69.9783 161.531 70.1381 161.531 70.3364C161.531 70.5678 161.599 70.7469 161.735 70.8736C161.871 71.0003 162.047 71.0637 162.265 71.0637H171.262ZM184.024 70.5843C182.97 71.1243 181.753 71.3943 180.373 71.3943C178.851 71.3943 177.515 71.0775 176.363 70.4438C175.211 69.8102 174.312 68.9232 173.666 67.7827C173.019 66.6422 172.696 65.3226 172.696 63.824C172.696 62.2483 173.008 60.8681 173.633 59.6835C174.258 58.4989 175.162 57.5761 176.347 56.9149C177.531 56.2538 178.955 55.9232 180.617 55.9232C182.03 55.9232 183.247 56.2014 184.268 56.7579C185.289 57.3144 186.074 58.0692 186.623 59.0224C187.172 59.9755 187.446 61.0361 187.446 62.2042C187.446 62.7111 187.31 63.1105 187.039 63.4025L186.974 63.4673C186.706 63.7161 186.337 63.8405 185.865 63.8405H178.414L178.43 63.9168C178.628 64.8243 178.966 65.5509 179.444 66.0967C180.259 67.0279 181.345 67.4934 182.703 67.4934C183.573 67.4934 184.341 67.2951 185.01 66.8984C185.678 66.5017 186.126 65.9507 186.354 65.2455C186.485 65.1022 186.601 65.0058 186.705 64.9562C186.808 64.9067 186.898 64.8819 186.974 64.8819C187.082 64.8819 187.175 64.9259 187.251 65.0141C187.327 65.1022 187.365 65.251 187.365 65.4604C187.365 66.5403 187.071 67.5292 186.485 68.4273C185.898 69.3254 185.077 70.0444 184.024 70.5843ZM178.244 62.5156C178.229 62.262 178.221 61.9984 178.221 61.7248C178.221 60.689 178.297 59.8736 178.449 59.2786C178.601 58.6835 178.797 58.262 179.036 58.0141C179.275 57.7662 179.541 57.6422 179.835 57.6422C180.215 57.6422 180.571 57.9673 180.902 58.6174C181.234 59.2675 181.399 60.3474 181.399 61.8571C181.399 62.3199 181.193 62.5513 180.78 62.5513H178.247L178.244 62.5156ZM199.605 70.5843C198.551 71.1243 197.334 71.3943 195.954 71.3943C194.433 71.3943 193.096 71.0775 191.945 70.4438C190.793 69.8102 189.894 68.9232 189.247 67.7827C188.601 66.6422 188.277 65.3226 188.277 63.824C188.277 62.2483 188.59 60.8681 189.215 59.6835C189.839 58.4989 190.744 57.5761 191.928 56.9149C193.113 56.2538 194.536 55.9232 196.199 55.9232C197.611 55.9232 198.828 56.2014 199.85 56.7579C200.871 57.3144 201.656 58.0692 202.205 59.0224C202.753 59.9755 203.028 61.0361 203.028 62.2042C203.028 62.7111 202.892 63.1105 202.62 63.4025L202.555 63.4673C202.288 63.7161 201.918 63.8405 201.447 63.8405H193.996L194.012 63.9168C194.21 64.8243 194.547 65.5509 195.025 66.0967C195.84 67.0279 196.927 67.4934 198.285 67.4934C199.154 67.4934 199.923 67.2951 200.591 66.8984C201.259 66.5017 201.708 65.9507 201.936 65.2455C202.066 65.1022 202.183 65.0058 202.286 64.9562C202.389 64.9067 202.479 64.8819 202.555 64.8819C202.664 64.8819 202.756 64.9259 202.832 65.0141C202.908 65.1022 202.946 65.251 202.946 65.4604C202.946 66.5403 202.653 67.5292 202.066 68.4273C201.479 69.3254 200.659 70.0444 199.605 70.5843ZM193.826 62.5156C193.81 62.262 193.803 61.9984 193.803 61.7248C193.803 60.689 193.879 59.8736 194.031 59.2786C194.183 58.6835 194.379 58.262 194.618 58.0141C194.857 57.7662 195.123 57.6422 195.416 57.6422C195.797 57.6422 196.152 57.9673 196.484 58.6174C196.815 59.2675 196.981 60.3474 196.981 61.8571C196.981 62.3199 196.775 62.5513 196.362 62.5513H193.828L193.826 62.5156ZM213.5 70.8571C213.364 70.9948 213.166 71.0637 212.905 71.0637H204.755C204.516 71.0637 204.329 70.9976 204.193 70.8653C204.057 70.7331 203.989 70.5513 203.989 70.3199C203.989 70.1436 204.03 69.9976 204.112 69.8819C204.193 69.7662 204.304 69.6587 204.446 69.5596L204.821 69.4108C204.962 69.3447 205.06 69.24 205.114 69.0967C205.168 68.9535 205.195 68.7166 205.195 68.386V59.9893C205.195 59.7248 205.166 59.5348 205.106 59.4191C205.046 59.3034 204.946 59.2124 204.804 59.1463L204.381 59.0967C204.228 59.0086 204.117 58.9149 204.046 58.8157C203.976 58.7166 203.94 58.5899 203.94 58.4356C203.94 58.2593 203.995 58.1022 204.103 57.9645C204.212 57.8268 204.397 57.7083 204.658 57.6091L209.286 56.2703C209.558 56.1601 209.786 56.083 209.971 56.0389C210.156 55.9948 210.313 55.9728 210.444 55.9728C210.628 55.9728 210.767 56.0389 210.859 56.1711L210.889 56.2191C210.965 56.3573 211.018 56.5782 211.047 56.8819L211.171 59.4503L211.199 59.3555C211.254 59.1766 211.315 59.0049 211.381 58.8405C211.777 57.8543 212.302 57.1215 212.954 56.6422C213.606 56.1629 214.317 55.9232 215.089 55.9232C216.023 55.9232 216.74 56.2372 217.24 56.8653C217.74 57.4934 217.99 58.4466 217.99 59.7248C217.99 60.9921 217.729 61.9232 217.208 62.5182C216.686 63.1133 216.012 63.4108 215.187 63.4108C214.382 63.4108 213.788 63.2069 213.402 62.7992C213.016 62.3915 212.812 61.813 212.791 61.0637L212.774 60.4025C212.763 60.1491 212.715 59.9507 212.628 59.8075C212.541 59.6642 212.399 59.5926 212.204 59.5926C212.008 59.5926 211.837 59.6945 211.691 59.8984C211.544 60.1023 211.432 60.4135 211.356 60.8323C211.28 61.251 211.242 61.7854 211.242 62.4356V68.2538C211.242 68.5623 211.291 68.8075 211.389 68.9893C211.487 69.1711 211.639 69.2841 211.845 69.3281L213.068 69.5761C213.296 69.6091 213.459 69.6945 213.557 69.8323C213.654 69.97 213.703 70.1326 213.703 70.3199C213.703 70.5403 213.635 70.7193 213.5 70.8571ZM226.53 71.3612C228.149 71.3612 229.57 71.0251 230.793 70.3529C232.015 69.6808 232.971 68.7689 233.661 67.6174C234.351 66.4659 234.696 65.1629 234.696 63.7083C234.696 62.1766 234.365 60.8268 233.702 59.6587C233.039 58.4907 232.115 57.5761 230.931 56.9149C229.747 56.2538 228.361 55.9232 226.775 55.9232C225.178 55.9232 223.765 56.2648 222.537 56.948C221.309 57.6312 220.348 58.554 219.652 59.7166C218.957 60.8791 218.609 62.1876 218.609 63.6422C218.609 65.1629 218.941 66.5017 219.604 67.6587C220.266 68.8157 221.193 69.7221 222.382 70.3777C223.572 71.0334 224.955 71.3612 226.53 71.3612ZM226.783 69.1959C227.104 69.5595 227.432 69.7083 227.769 69.6422C228.106 69.5761 228.359 69.3116 228.527 68.8488C228.695 68.386 228.766 67.7 228.739 66.791C228.712 65.8819 228.568 64.7276 228.307 63.3281C228.046 61.9287 227.769 60.7992 227.476 59.9397C227.182 59.0802 226.875 58.4686 226.555 58.105C226.234 57.7414 225.906 57.5926 225.569 57.6587C225.232 57.7359 224.982 58.0058 224.819 58.4686C224.656 58.9315 224.591 59.6146 224.624 60.5182C224.656 61.4218 224.797 62.5733 225.047 63.9728C225.308 65.3722 225.582 66.5017 225.87 67.3612C226.158 68.2207 226.463 68.8323 226.783 69.1959ZM247.621 71.3943C248.534 71.3943 249.283 71.2262 249.87 70.8901C250.457 70.554 250.894 70.1546 251.182 69.6918C251.47 69.229 251.614 68.8047 251.614 68.4191C251.614 68.2538 251.579 68.116 251.508 68.0058C251.438 67.8956 251.342 67.8405 251.223 67.8405C251.169 67.8405 251.12 67.8516 251.076 67.8736C251.033 67.8956 250.995 67.9287 250.962 67.9728C250.908 68.1711 250.824 68.3089 250.71 68.386C250.595 68.4631 250.473 68.5017 250.343 68.5017C250.158 68.5017 250.02 68.4383 249.927 68.3116C249.835 68.1849 249.789 68.0168 249.789 67.8075V60.5017C249.789 59.0472 249.297 57.9204 248.314 57.1215C247.33 56.3226 245.79 55.9232 243.693 55.9232C242.063 55.9232 240.702 56.127 239.61 56.5348C238.518 56.9425 237.698 57.4631 237.149 58.0967C236.6 58.7303 236.326 59.3777 236.326 60.0389C236.326 60.7441 236.53 61.2813 236.937 61.6505C237.345 62.0196 237.934 62.2042 238.706 62.2042C239.651 62.2042 240.395 61.948 240.938 61.4356C241.482 60.9232 241.753 60.2593 241.753 59.4438V58.1876C241.753 57.8791 241.848 57.6394 242.039 57.4686C242.229 57.2978 242.465 57.2124 242.748 57.2124C243.052 57.2124 243.294 57.3254 243.473 57.5513C243.652 57.7772 243.742 58.083 243.742 58.4686L243.741 63.2868L243.655 63.268C243.393 63.2173 243.089 63.1884 242.744 63.1812L242.568 63.1794C240.232 63.1794 238.491 63.5761 237.345 64.3695C236.198 65.1629 235.625 66.2703 235.625 67.6918C235.625 68.7717 236.019 69.6587 236.807 70.3529C237.595 71.0472 238.64 71.3943 239.944 71.3943C240.922 71.3943 241.835 71.1932 242.682 70.791C243.318 70.4893 243.835 70.0931 244.232 69.6024L244.254 69.5738L244.278 69.6477C244.404 70.005 244.633 70.3251 244.967 70.608L245.07 70.6918C245.673 71.1601 246.523 71.3943 247.621 71.3943ZM242.006 68.2786C242.272 68.6367 242.623 68.8157 243.057 68.8157L243.151 68.8125C243.336 68.7996 243.515 68.748 243.688 68.6576L243.741 68.6275V64.386L243.66 64.3612C243.476 64.3116 243.258 64.2868 243.008 64.2868C242.585 64.2868 242.245 64.4852 241.99 64.8819C241.734 65.2786 241.607 65.8626 241.607 66.6339C241.607 67.3722 241.74 67.9204 242.006 68.2786ZM259.111 71.4438C261.046 71.4438 262.529 70.9976 263.561 70.105C264.593 69.2124 265.109 67.9948 265.109 66.4521C265.109 65.5155 264.936 64.6945 264.588 63.9893C264.24 63.2841 263.632 62.6587 262.762 62.1133C261.893 61.5678 260.671 61.0527 259.095 60.5678C258.508 60.3805 258.055 60.1904 257.734 59.9976C257.414 59.8047 257.194 59.5981 257.074 59.3777C256.955 59.1573 256.895 58.9204 256.895 58.667C256.895 58.2923 257.031 57.9893 257.302 57.7579C257.574 57.5265 257.976 57.4108 258.508 57.4108C259.247 57.4108 259.945 57.6587 260.603 58.1546C261.26 58.6505 261.986 59.4989 262.779 60.7C262.985 60.9535 263.192 61.1381 263.398 61.2538C263.604 61.3695 263.8 61.4053 263.985 61.3612C264.213 61.2951 264.354 61.1436 264.409 60.9067C264.463 60.6697 264.452 60.3309 264.376 59.8901L263.952 56.8488C263.909 56.5292 263.827 56.3034 263.708 56.1711C263.588 56.0389 263.431 55.9728 263.235 55.9728C263.061 55.9728 262.844 56.0334 262.583 56.1546C262.322 56.2758 262.064 56.3998 261.809 56.5265C261.554 56.6532 261.361 56.7166 261.23 56.7166C261.111 56.7166 260.934 56.6505 260.701 56.5182C260.467 56.386 260.138 56.2538 259.715 56.1215C259.291 55.9893 258.742 55.9232 258.068 55.9232C256.949 55.9232 255.941 56.127 255.045 56.5348C254.149 56.9425 253.442 57.5237 252.926 58.2786C252.41 59.0334 252.152 59.9342 252.152 60.981C252.152 61.9067 252.345 62.7166 252.731 63.4108C253.116 64.105 253.706 64.7 254.499 65.1959C255.292 65.6918 256.292 66.094 257.498 66.4025C258.28 66.6119 258.881 66.824 259.299 67.0389C259.717 67.2538 260.005 67.4879 260.163 67.7414C260.32 67.9948 260.399 68.2758 260.399 68.5843C260.399 68.9921 260.263 69.3281 259.992 69.5926C259.72 69.8571 259.307 69.9893 258.753 69.9893C258.231 69.9893 257.734 69.8764 257.262 69.6505C256.789 69.4246 256.303 69.0361 255.803 68.4852C255.303 67.9342 254.743 67.1794 254.124 66.2207C253.939 65.9673 253.73 65.791 253.497 65.6918C253.263 65.5926 253.027 65.5981 252.788 65.7083C252.559 65.7965 252.413 65.9838 252.348 66.2703C252.282 66.5568 252.299 66.9094 252.396 67.3281L252.902 70.6174C252.978 70.948 253.086 71.1684 253.228 71.2786C253.369 71.3888 253.521 71.4438 253.684 71.4438C253.869 71.4438 254.094 71.3832 254.36 71.262L255.159 70.8984C255.425 70.7772 255.64 70.7166 255.803 70.7166C255.966 70.7166 256.18 70.7772 256.447 70.8984C256.713 71.0196 257.061 71.1408 257.49 71.262C257.919 71.3832 258.46 71.4438 259.111 71.4438ZM274.563 70.824C273.846 71.2042 272.998 71.3943 272.02 71.3943C270.368 71.3943 269.127 70.9921 268.296 70.1876C267.465 69.3832 267.049 68.116 267.049 66.386V58.9149C267.049 58.6835 267.027 58.5072 266.984 58.386C266.94 58.2648 266.832 58.1656 266.658 58.0885L265.892 57.8405C265.707 57.7524 265.588 57.6449 265.533 57.5182C265.479 57.3915 265.452 57.2345 265.452 57.0472C265.452 56.8157 265.533 56.6257 265.696 56.4769C265.859 56.3281 266.06 56.2538 266.299 56.2538H267.098C267.196 56.2538 267.299 56.2152 267.408 56.1381C267.516 56.0609 267.663 55.9067 267.848 55.6753L270.863 53.1463C271.08 52.8819 271.297 52.6808 271.515 52.543C271.732 52.4053 271.949 52.3364 272.167 52.3364C272.417 52.3364 272.612 52.4135 272.753 52.5678L272.798 52.6225C272.91 52.777 272.965 53.0012 272.965 53.2951L272.965 56.2538H276.372C276.611 56.2538 276.796 56.3061 276.926 56.4108C277.056 56.5155 277.122 56.678 277.122 56.8984C277.122 57.2069 276.986 57.4714 276.714 57.6918L276.653 57.7373C276.38 57.9273 275.965 58.0224 275.41 58.0224H272.965L272.965 65.5596C272.965 66.386 273.104 66.9976 273.381 67.3943C273.658 67.791 274.063 67.9893 274.595 67.9893C274.823 67.9893 275.035 67.9397 275.231 67.8405C275.426 67.7414 275.603 67.6119 275.761 67.4521C275.918 67.2923 276.068 67.1133 276.209 66.9149C276.35 66.7166 276.486 66.5182 276.616 66.3199C276.725 66.2758 276.82 66.2951 276.902 66.3777C276.983 66.4604 277.018 66.6284 277.007 66.8819C276.931 67.7744 276.684 68.5595 276.266 69.2372C275.848 69.9149 275.28 70.4438 274.563 70.824ZM285.238 71.3943C286.618 71.3943 287.835 71.1243 288.889 70.5843C289.943 70.0444 290.764 69.3254 291.35 68.4273C291.937 67.5292 292.23 66.5403 292.23 65.4604C292.23 65.251 292.192 65.1022 292.116 65.0141C292.04 64.9259 291.948 64.8819 291.839 64.8819C291.763 64.8819 291.674 64.9067 291.57 64.9562C291.467 65.0058 291.35 65.1022 291.22 65.2455C290.992 65.9507 290.543 66.5017 289.875 66.8984C289.207 67.2951 288.438 67.4934 287.569 67.4934C286.211 67.4934 285.124 67.0279 284.309 66.0967C283.832 65.5509 283.494 64.8243 283.296 63.9168L283.28 63.8405H290.731C291.202 63.8405 291.572 63.7161 291.84 63.4673L291.904 63.4025C292.176 63.1105 292.312 62.7111 292.312 62.2042C292.312 61.0361 292.038 59.9755 291.489 59.0224C290.94 58.0692 290.155 57.3144 289.134 56.7579C288.112 56.2014 286.895 55.9232 285.483 55.9232C283.82 55.9232 282.397 56.2538 281.213 56.9149C280.028 57.5761 279.124 58.4989 278.499 59.6835C277.874 60.8681 277.562 62.2483 277.562 63.824C277.562 65.3226 277.885 66.6422 278.531 67.7827C279.178 68.9232 280.077 69.8102 281.229 70.4438C282.381 71.0775 283.717 71.3943 285.238 71.3943ZM283.087 61.7248C283.087 61.9984 283.095 62.262 283.11 62.5156L283.112 62.5513H285.646C286.059 62.5513 286.265 62.3199 286.265 61.8571C286.265 60.3474 286.099 59.2675 285.768 58.6174C285.437 57.9673 285.081 57.6422 284.7 57.6422C284.407 57.6422 284.141 57.7662 283.902 58.0141C283.663 58.262 283.467 58.6835 283.315 59.2786C283.163 59.8736 283.087 60.689 283.087 61.7248ZM302.189 71.0637C302.45 71.0637 302.648 70.9948 302.784 70.8571C302.92 70.7193 302.988 70.5403 302.988 70.3199C302.988 70.1326 302.939 69.97 302.841 69.8323C302.743 69.6945 302.58 69.6091 302.352 69.5761L301.129 69.3281C300.923 69.2841 300.771 69.1711 300.673 68.9893C300.575 68.8075 300.526 68.5623 300.526 68.2538V62.4356C300.526 61.7854 300.564 61.251 300.641 60.8323C300.717 60.4135 300.828 60.1023 300.975 59.8984C301.121 59.6945 301.292 59.5926 301.488 59.5926C301.684 59.5926 301.825 59.6642 301.912 59.8075C301.999 59.9507 302.048 60.1491 302.059 60.4025L302.075 61.0637C302.097 61.813 302.3 62.3915 302.686 62.7992C303.072 63.2069 303.667 63.4108 304.471 63.4108C305.297 63.4108 305.97 63.1133 306.492 62.5182C307.013 61.9232 307.274 60.9921 307.274 59.7248C307.274 58.4466 307.024 57.4934 306.524 56.8653C306.025 56.2372 305.307 55.9232 304.373 55.9232C303.601 55.9232 302.89 56.1629 302.238 56.6422C301.586 57.1215 301.062 57.8543 300.665 58.8405C300.599 59.0049 300.538 59.1766 300.483 59.3555L300.455 59.4507L300.331 56.8819C300.302 56.5782 300.249 56.3573 300.173 56.2191L300.143 56.1711C300.051 56.0389 299.913 55.9728 299.728 55.9728C299.597 55.9728 299.44 55.9948 299.255 56.0389C299.07 56.083 298.842 56.1601 298.571 56.2703L293.942 57.6091C293.681 57.7083 293.496 57.8268 293.388 57.9645C293.279 58.1022 293.225 58.2593 293.225 58.4356C293.225 58.5899 293.26 58.7166 293.331 58.8157C293.401 58.9149 293.513 59.0086 293.665 59.0967L294.088 59.1463C294.23 59.2124 294.33 59.3034 294.39 59.4191C294.45 59.5348 294.48 59.7248 294.48 59.9893V68.386C294.48 68.7166 294.452 68.9535 294.398 69.0967C294.344 69.24 294.246 69.3447 294.105 69.4108L293.73 69.5596C293.589 69.6587 293.477 69.7662 293.396 69.8819C293.314 69.9976 293.274 70.1436 293.274 70.3199C293.274 70.5513 293.341 70.7331 293.477 70.8653C293.613 70.9976 293.801 71.0637 294.04 71.0637H302.189ZM319.351 70.105C318.319 70.9976 316.836 71.4438 314.902 71.4438C314.25 71.4438 313.709 71.3832 313.28 71.262C312.851 71.1408 312.503 71.0196 312.237 70.8984C311.971 70.7772 311.756 70.7166 311.593 70.7166C311.43 70.7166 311.216 70.7772 310.949 70.8984L310.151 71.262C309.885 71.3832 309.659 71.4438 309.474 71.4438C309.311 71.4438 309.159 71.3888 309.018 71.2786C308.877 71.1684 308.768 70.948 308.692 70.6174L308.187 67.3281C308.089 66.9094 308.073 66.5568 308.138 66.2703C308.203 65.9838 308.35 65.7965 308.578 65.7083C308.817 65.5981 309.053 65.5926 309.287 65.6918C309.521 65.791 309.73 65.9673 309.914 66.2207C310.534 67.1794 311.093 67.9342 311.593 68.4852C312.093 69.0361 312.579 69.4246 313.052 69.6505C313.525 69.8764 314.022 69.9893 314.543 69.9893C315.097 69.9893 315.51 69.8571 315.782 69.5926C316.054 69.3281 316.189 68.9921 316.189 68.5843C316.189 68.2758 316.111 67.9948 315.953 67.7414C315.796 67.4879 315.508 67.2538 315.089 67.0389C314.671 66.824 314.071 66.6119 313.288 66.4025C312.082 66.094 311.083 65.6918 310.289 65.1959C309.496 64.7 308.907 64.105 308.521 63.4108C308.135 62.7166 307.942 61.9067 307.942 60.981C307.942 59.9342 308.2 59.0334 308.717 58.2786C309.233 57.5237 309.939 56.9425 310.835 56.5348C311.732 56.127 312.74 55.9232 313.859 55.9232C314.532 55.9232 315.081 55.9893 315.505 56.1215C315.929 56.2538 316.257 56.386 316.491 56.5182C316.725 56.6505 316.901 56.7166 317.021 56.7166C317.151 56.7166 317.344 56.6532 317.599 56.5265C317.855 56.3998 318.113 56.2758 318.373 56.1546C318.634 56.0334 318.852 55.9728 319.025 55.9728C319.221 55.9728 319.379 56.0389 319.498 56.1711C319.618 56.3034 319.699 56.5292 319.743 56.8488L320.166 59.8901C320.242 60.3309 320.253 60.6697 320.199 60.9067C320.145 61.1436 320.003 61.2951 319.775 61.3612C319.59 61.4053 319.395 61.3695 319.188 61.2538C318.982 61.1381 318.776 60.9535 318.569 60.7C317.776 59.4989 317.051 58.6505 316.393 58.1546C315.736 57.6587 315.038 57.4108 314.299 57.4108C313.766 57.4108 313.364 57.5265 313.093 57.7579C312.821 57.9893 312.685 58.2923 312.685 58.667C312.685 58.9204 312.745 59.1573 312.865 59.3777C312.984 59.5981 313.204 59.8047 313.525 59.9976C313.845 60.1904 314.299 60.3805 314.886 60.5678C316.461 61.0527 317.684 61.5678 318.553 62.1133C319.422 62.6587 320.031 63.2841 320.378 63.9893C320.726 64.6945 320.9 65.5155 320.9 66.4521C320.9 67.9948 320.384 69.2124 319.351 70.105Z" fill="white"/>
<path fill-rule="evenodd" clip-rule="evenodd" d="M99.3891 51.4465C95.8747 47.935 90.6653 47.4295 87.7764 50.3215C84.886 53.2121 85.3914 58.4216 88.8999 61.9347C89.8358 62.8707 90.9143 63.5862 92.0528 64.0992C92.4263 61.9287 93.4973 59.8422 95.1232 58.1291C94.5847 57.9371 94.0327 57.7751 93.4568 57.6176C90.0458 56.6816 88.3509 53.8361 87.9549 50.5C88.2824 50.8939 88.5806 51.307 88.8779 51.7189C89.4548 52.518 90.0283 53.3126 90.8063 53.9531C92.0166 54.9496 93.345 55.3343 94.7983 55.7551C94.8544 55.7714 94.9107 55.7877 94.9672 55.8041C95.6557 56.0036 96.2542 56.2991 96.8032 56.6441C98.2462 55.5896 99.8736 54.8876 101.554 54.5981C101.042 53.4596 100.325 52.3825 99.3891 51.4465ZM93.4463 64.9332C93.6698 62.7597 94.7227 60.6342 96.4102 58.9466C99.9246 55.4351 105.134 54.9281 108.023 57.8216C110.913 60.7122 110.409 65.9217 106.896 69.4348C105.209 71.1223 103.084 72.1753 100.91 72.4003C100.621 72.4288 100.334 72.4438 100.054 72.4438C98.1847 72.4438 96.5152 71.7883 95.2852 70.5583C93.8693 69.1438 93.2153 67.1458 93.4463 64.9332ZM98.5866 66.7168C99.7386 65.8377 100.985 65.4897 102.341 65.1192C105.752 64.1832 107.445 61.3377 107.843 58.0016C107.518 58.3933 107.222 58.8036 106.927 59.2127C106.348 60.0147 105.773 60.812 104.992 61.4547C103.778 62.4528 102.446 62.8382 100.986 63.2606L100.831 63.3057C97.4932 64.2747 95.8432 67.0963 95.4622 70.3798C95.791 69.9848 96.0922 69.5747 96.3918 69.1668C97.0421 68.2812 97.685 67.4058 98.5866 66.7168Z" fill="#0E8784"/>
<path d="M429.096 57.2478V60.4038C429.096 60.4518 429.072 60.4758 429.024 60.4758H426.396C426.348 60.4758 426.324 60.4518 426.324 60.4038V57.2478C426.324 57.1158 426.252 57.0438 426.12 57.0438H424.836C424.704 57.0438 424.632 57.1158 424.632 57.2478V65.2398C424.632 65.3718 424.704 65.4438 424.836 65.4438H426.12C426.252 65.4438 426.324 65.3718 426.324 65.2398V61.9998C426.324 61.9518 426.348 61.9278 426.396 61.9278H429.024C429.072 61.9278 429.096 61.9518 429.096 61.9998V65.2398C429.096 65.3718 429.168 65.4438 429.3 65.4438H430.584C430.716 65.4438 430.788 65.3718 430.788 65.2398V57.2478C430.788 57.1158 430.716 57.0438 430.584 57.0438H429.3C429.168 57.0438 429.096 57.1158 429.096 57.2478ZM436.078 65.5758C437.986 65.5758 439.246 64.3518 439.246 62.5278V59.9598C439.246 58.1598 437.986 56.9478 436.078 56.9478C434.182 56.9478 432.922 58.1598 432.922 59.9598V62.5278C432.922 64.3518 434.182 65.5758 436.078 65.5758ZM436.078 64.1238C435.202 64.1238 434.614 63.5118 434.614 62.5878V59.9478C434.614 59.0118 435.202 58.3998 436.078 58.3998C436.966 58.3998 437.554 59.0118 437.554 59.9478V62.5878C437.554 63.5118 436.966 64.1238 436.078 64.1238ZM441.682 65.4438H442.966C443.098 65.4438 443.17 65.3718 443.17 65.2398V60.0438C443.17 59.9718 443.218 59.9598 443.254 60.0198L444.454 61.9998C444.514 62.0958 444.586 62.1318 444.694 62.1318H445.306C445.414 62.1318 445.486 62.0958 445.546 61.9998L446.758 60.0198C446.794 59.9598 446.842 59.9718 446.842 60.0438V65.2398C446.842 65.3718 446.914 65.4438 447.046 65.4438H448.33C448.462 65.4438 448.534 65.3718 448.534 65.2398V57.2478C448.534 57.1158 448.462 57.0438 448.33 57.0438H447.046C446.938 57.0438 446.866 57.0798 446.806 57.1758L445.042 59.9838C445.018 60.0318 444.97 60.0318 444.946 59.9838L443.206 57.1758C443.146 57.0798 443.074 57.0438 442.966 57.0438H441.682C441.55 57.0438 441.478 57.1158 441.478 57.2478V65.2398C441.478 65.3718 441.55 65.4438 441.682 65.4438ZM456.682 58.2918V57.2478C456.682 57.1158 456.61 57.0438 456.478 57.0438H451.054C450.922 57.0438 450.85 57.1158 450.85 57.2478V65.2398C450.85 65.3718 450.922 65.4438 451.054 65.4438H456.478C456.61 65.4438 456.682 65.3718 456.682 65.2398V64.1958C456.682 64.0638 456.61 63.9918 456.478 63.9918H452.614C452.566 63.9918 452.542 63.9558 452.542 63.9198V61.9998C452.542 61.9518 452.578 61.9278 452.614 61.9278H455.122C455.254 61.9278 455.326 61.8558 455.326 61.7238V60.6798C455.326 60.5478 455.254 60.4758 455.122 60.4758H452.614C452.566 60.4758 452.542 60.4518 452.542 60.4038V58.5678C452.542 58.5198 452.578 58.4958 452.614 58.4958H456.478C456.61 58.4958 456.682 58.4238 456.682 58.2918Z" fill="#83888F"/>
<path d="M497.032 65.4438H498.424C498.568 65.4438 498.64 65.3478 498.592 65.2158L496.036 57.2118C496 57.1038 495.928 57.0438 495.808 57.0438H494.044C493.924 57.0438 493.852 57.1038 493.816 57.2118L491.26 65.2158C491.212 65.3478 491.284 65.4438 491.428 65.4438H492.82C492.94 65.4438 493.012 65.3838 493.048 65.2758L493.384 64.1598C493.396 64.1118 493.42 64.0998 493.456 64.0998H496.396C496.432 64.0998 496.456 64.1118 496.468 64.1598L496.804 65.2758C496.84 65.3838 496.912 65.4438 497.032 65.4438ZM493.804 62.7078L494.872 59.0478C494.896 58.9878 494.944 58.9878 494.968 59.0478L496.048 62.7078C496.06 62.7678 496.036 62.7918 495.988 62.7918H493.864C493.816 62.7918 493.792 62.7678 493.804 62.7078ZM505.598 61.0518C506.258 60.7278 506.606 60.1878 506.606 59.3478C506.606 57.7158 505.55 57.0438 503.762 57.0438H500.81C500.678 57.0438 500.606 57.1158 500.606 57.2478V65.2398C500.606 65.3718 500.678 65.4438 500.81 65.4438H503.858C505.466 65.4438 506.726 64.7238 506.726 63.0918C506.726 62.1798 506.366 61.5318 505.598 61.1478C505.55 61.1238 505.55 61.0758 505.598 61.0518ZM502.37 58.4958H503.762C504.518 58.4958 504.95 58.8798 504.95 59.5038C504.95 60.1158 504.518 60.4878 503.762 60.4878H502.37C502.322 60.4878 502.298 60.4638 502.298 60.4158V58.5678C502.298 58.5198 502.322 58.4958 502.37 58.4958ZM503.858 63.9798H502.37C502.322 63.9798 502.298 63.9558 502.298 63.9078V61.9398C502.298 61.8918 502.334 61.8678 502.37 61.8678H503.846C504.602 61.8678 505.034 62.2638 505.034 62.9238C505.034 63.5838 504.602 63.9798 503.858 63.9798ZM511.946 65.5758C513.854 65.5758 515.114 64.3518 515.114 62.5278V59.9598C515.114 58.1598 513.854 56.9478 511.946 56.9478C510.05 56.9478 508.79 58.1598 508.79 59.9598V62.5278C508.79 64.3518 510.05 65.5758 511.946 65.5758ZM511.946 64.1238C511.07 64.1238 510.482 63.5118 510.482 62.5878V59.9478C510.482 59.0118 511.07 58.3998 511.946 58.3998C512.834 58.3998 513.422 59.0118 513.422 59.9478V62.5878C513.422 63.5118 512.834 64.1238 511.946 64.1238ZM520.383 65.5398C522.243 65.5398 523.491 64.3878 523.491 62.6598V57.2478C523.491 57.1158 523.419 57.0438 523.287 57.0438H522.003C521.871 57.0438 521.799 57.1158 521.799 57.2478V62.6718C521.799 63.5118 521.235 64.0878 520.383 64.0878C519.531 64.0878 518.967 63.5118 518.967 62.6718V57.2478C518.967 57.1158 518.895 57.0438 518.763 57.0438H517.479C517.347 57.0438 517.275 57.1158 517.275 57.2478V62.6598C517.275 64.3878 518.523 65.5398 520.383 65.5398ZM531.541 57.0438H525.613C525.481 57.0438 525.409 57.1158 525.409 57.2478V58.3038C525.409 58.4358 525.481 58.5078 525.613 58.5078H527.629C527.677 58.5078 527.701 58.5318 527.701 58.5798V65.2398C527.701 65.3718 527.773 65.4438 527.905 65.4438H529.189C529.321 65.4438 529.393 65.3718 529.393 65.2398V58.5798C529.393 58.5318 529.417 58.5078 529.465 58.5078H531.541C531.673 58.5078 531.745 58.4358 531.745 58.3038V57.2478C531.745 57.1158 531.673 57.0438 531.541 57.0438ZM540.121 65.5398C541.981 65.5398 543.229 64.3878 543.229 62.6598V57.2478C543.229 57.1158 543.157 57.0438 543.025 57.0438H541.741C541.609 57.0438 541.537 57.1158 541.537 57.2478V62.6718C541.537 63.5118 540.973 64.0878 540.121 64.0878C539.269 64.0878 538.705 63.5118 538.705 62.6718V57.2478C538.705 57.1158 538.633 57.0438 538.501 57.0438H537.217C537.085 57.0438 537.013 57.1158 537.013 57.2478V62.6598C537.013 64.3878 538.261 65.5398 540.121 65.5398ZM548.387 65.5398C550.271 65.5398 551.459 64.5678 551.459 63.1038C551.459 61.4718 549.947 61.0038 548.855 60.6078C547.523 60.1398 546.995 59.9238 546.995 59.2998C546.995 58.7358 547.427 58.3998 548.195 58.3998C549.203 58.3998 549.743 58.9878 549.743 59.6118V59.7318C549.743 59.8038 549.815 59.8518 549.947 59.8518H551.207C551.339 59.8518 551.411 59.7798 551.411 59.6478V59.5278C551.411 57.9798 550.103 56.9478 548.255 56.9478C546.539 56.9478 545.327 57.8478 545.327 59.3238C545.327 60.9078 546.767 61.4718 548.015 61.9038C549.155 62.3238 549.767 62.5398 549.767 63.1518C549.767 63.6318 549.431 64.0878 548.519 64.0878C547.547 64.0878 546.935 63.5598 546.935 62.9478V62.7798C546.935 62.6838 546.863 62.6238 546.731 62.6238H545.471C545.339 62.6238 545.267 62.6958 545.267 62.8278V63.0318C545.267 64.5558 546.503 65.5398 548.387 65.5398Z" fill="#83888F"/>
<path d="M588.584 65.5398C590.444 65.5398 591.692 64.4238 591.692 62.7438V62.6838C591.692 62.6478 591.608 62.6358 591.488 62.6238L590.204 62.5638C590.072 62.5518 590 62.6118 590 62.6958C590 63.5238 589.436 64.0878 588.584 64.0878C587.72 64.0878 587.156 63.5238 587.156 62.6958V59.8038C587.156 58.9638 587.72 58.3998 588.584 58.3998C589.436 58.3998 590 58.9638 590 59.8038V59.8758C590 59.9118 590.084 59.9478 590.216 59.9358L591.5 59.8518C591.62 59.8398 591.692 59.7918 591.692 59.7198C591.692 58.0518 590.444 56.9478 588.584 56.9478C586.7 56.9478 585.464 58.0998 585.464 59.8518V62.6238C585.464 64.3758 586.7 65.5398 588.584 65.5398ZM598.512 65.4438H599.868C600.024 65.4438 600.084 65.3358 600.012 65.2038L598.428 61.8918C598.404 61.8558 598.416 61.8078 598.464 61.7958C599.412 61.4718 600 60.6558 600 59.5638C600 58.0518 598.98 57.0318 597.432 57.0318H594.06C593.928 57.0318 593.856 57.1038 593.856 57.2358V65.2398C593.856 65.3718 593.928 65.4438 594.06 65.4438H595.344C595.476 65.4438 595.548 65.3718 595.548 65.2398V62.0358C595.548 61.9878 595.572 61.9638 595.62 61.9638H596.712C596.748 61.9638 596.784 61.9878 596.796 62.0238L598.272 65.2878C598.32 65.3838 598.404 65.4438 598.512 65.4438ZM595.62 58.4958H597.18C597.852 58.4958 598.32 58.9398 598.32 59.5878C598.32 60.2238 597.852 60.6558 597.18 60.6558H595.62C595.572 60.6558 595.548 60.6198 595.548 60.5838V58.5678C595.548 58.5198 595.572 58.4958 595.62 58.4958ZM607.982 58.2918V57.2478C607.982 57.1158 607.91 57.0438 607.778 57.0438H602.354C602.222 57.0438 602.15 57.1158 602.15 57.2478V65.2398C602.15 65.3718 602.222 65.4438 602.354 65.4438H607.778C607.91 65.4438 607.982 65.3718 607.982 65.2398V64.1958C607.982 64.0638 607.91 63.9918 607.778 63.9918H603.914C603.866 63.9918 603.842 63.9558 603.842 63.9198V61.9998C603.842 61.9518 603.878 61.9278 603.914 61.9278H606.422C606.554 61.9278 606.626 61.8558 606.626 61.7238V60.6798C606.626 60.5478 606.554 60.4758 606.422 60.4758H603.914C603.866 60.4758 603.842 60.4518 603.842 60.4038V58.5678C603.842 58.5198 603.878 58.4958 603.914 58.4958H607.778C607.91 58.4958 607.982 58.4238 607.982 58.2918ZM615.481 65.4438H616.873C617.017 65.4438 617.089 65.3478 617.041 65.2158L614.485 57.2118C614.449 57.1038 614.377 57.0438 614.257 57.0438H612.493C612.373 57.0438 612.301 57.1038 612.265 57.2118L609.709 65.2158C609.661 65.3478 609.733 65.4438 609.877 65.4438H611.269C611.389 65.4438 611.461 65.3838 611.497 65.2758L611.833 64.1598C611.845 64.1118 611.869 64.0998 611.905 64.0998H614.845C614.881 64.0998 614.905 64.1118 614.917 64.1598L615.253 65.2758C615.289 65.3838 615.361 65.4438 615.481 65.4438ZM612.253 62.7078L613.321 59.0478C613.345 58.9878 613.393 58.9878 613.417 59.0478L614.497 62.7078C614.509 62.7678 614.485 62.7918 614.437 62.7918H612.313C612.265 62.7918 612.241 62.7678 612.253 62.7078ZM623.759 57.0438H617.831C617.699 57.0438 617.627 57.1158 617.627 57.2478V58.3038C617.627 58.4358 617.699 58.5078 617.831 58.5078H619.847C619.895 58.5078 619.919 58.5318 619.919 58.5798V65.2398C619.919 65.3718 619.991 65.4438 620.123 65.4438H621.407C621.539 65.4438 621.611 65.3718 621.611 65.2398V58.5798C621.611 58.5318 621.635 58.5078 621.683 58.5078H623.759C623.891 58.5078 623.963 58.4358 623.963 58.3038V57.2478C623.963 57.1158 623.891 57.0438 623.759 57.0438ZM631.798 58.2918V57.2478C631.798 57.1158 631.726 57.0438 631.594 57.0438H626.17C626.038 57.0438 625.966 57.1158 625.966 57.2478V65.2398C625.966 65.3718 626.038 65.4438 626.17 65.4438H631.594C631.726 65.4438 631.798 65.3718 631.798 65.2398V64.1958C631.798 64.0638 631.726 63.9918 631.594 63.9918H627.73C627.682 63.9918 627.658 63.9558 627.658 63.9198V61.9998C627.658 61.9518 627.694 61.9278 627.73 61.9278H630.238C630.37 61.9278 630.442 61.8558 630.442 61.7238V60.6798C630.442 60.5478 630.37 60.4758 630.238 60.4758H627.73C627.682 60.4758 627.658 60.4518 627.658 60.4038V58.5678C627.658 58.5198 627.694 58.4958 627.73 58.4958H631.594C631.726 58.4958 631.798 58.4238 631.798 58.2918ZM639.55 65.4318H640.822C640.954 65.4318 641.026 65.3598 641.026 65.2278V62.2638C641.026 62.2398 641.038 62.1918 641.05 62.1678L643.498 57.2838C643.57 57.1518 643.498 57.0438 643.342 57.0438H641.938C641.83 57.0438 641.746 57.1038 641.698 57.1998L640.234 60.3198C640.21 60.3678 640.162 60.3678 640.138 60.3198L638.674 57.1998C638.626 57.1038 638.542 57.0438 638.434 57.0438H637.042C636.886 57.0438 636.826 57.1518 636.898 57.2838L639.322 62.1678C639.334 62.1918 639.346 62.2398 639.346 62.2638V65.2278C639.346 65.3598 639.418 65.4318 639.55 65.4318ZM648.129 65.5758C650.037 65.5758 651.297 64.3518 651.297 62.5278V59.9598C651.297 58.1598 650.037 56.9478 648.129 56.9478C646.233 56.9478 644.973 58.1598 644.973 59.9598V62.5278C644.973 64.3518 646.233 65.5758 648.129 65.5758ZM648.129 64.1238C647.253 64.1238 646.665 63.5118 646.665 62.5878V59.9478C646.665 59.0118 647.253 58.3998 648.129 58.3998C649.017 58.3998 649.605 59.0118 649.605 59.9478V62.5878C649.605 63.5118 649.017 64.1238 648.129 64.1238ZM656.566 65.5398C658.426 65.5398 659.674 64.3878 659.674 62.6598V57.2478C659.674 57.1158 659.602 57.0438 659.47 57.0438H658.186C658.054 57.0438 657.982 57.1158 657.982 57.2478V62.6718C657.982 63.5118 657.418 64.0878 656.566 64.0878C655.714 64.0878 655.15 63.5118 655.15 62.6718V57.2478C655.15 57.1158 655.078 57.0438 654.946 57.0438H653.662C653.53 57.0438 653.458 57.1158 653.458 57.2478V62.6598C653.458 64.3878 654.706 65.5398 656.566 65.5398ZM666.644 65.4438H668C668.156 65.4438 668.216 65.3358 668.144 65.2038L666.56 61.8918C666.536 61.8558 666.548 61.8078 666.596 61.7958C667.544 61.4718 668.132 60.6558 668.132 59.5638C668.132 58.0518 667.112 57.0318 665.564 57.0318H662.192C662.06 57.0318 661.988 57.1038 661.988 57.2358V65.2398C661.988 65.3718 662.06 65.4438 662.192 65.4438H663.476C663.608 65.4438 663.68 65.3718 663.68 65.2398V62.0358C663.68 61.9878 663.704 61.9638 663.752 61.9638H664.844C664.88 61.9638 664.916 61.9878 664.928 62.0238L666.404 65.2878C666.452 65.3838 666.536 65.4438 666.644 65.4438ZM663.752 58.4958H665.312C665.984 58.4958 666.452 58.9398 666.452 59.5878C666.452 60.2238 665.984 60.6558 665.312 60.6558H663.752C663.704 60.6558 663.68 60.6198 663.68 60.5838V58.5678C663.68 58.5198 663.704 58.4958 663.752 58.4958ZM677.075 57.0318H673.751C673.619 57.0318 673.547 57.1038 673.547 57.2358V65.2398C673.547 65.3718 673.619 65.4438 673.751 65.4438H675.035C675.167 65.4438 675.239 65.3718 675.239 65.2398V62.2518C675.239 62.2038 675.275 62.1798 675.311 62.1798H677.003C678.635 62.1798 679.727 61.1598 679.727 59.6358C679.727 58.0758 678.671 57.0318 677.075 57.0318ZM676.823 60.8238H675.311C675.263 60.8238 675.239 60.7998 675.239 60.7518V58.5678C675.239 58.5198 675.263 58.4958 675.311 58.4958H676.823C677.555 58.4958 678.047 58.9638 678.047 59.6718C678.047 60.3558 677.555 60.8238 676.823 60.8238ZM681.894 65.4438H687.306C687.438 65.4438 687.51 65.3718 687.51 65.2398V64.1958C687.51 64.0638 687.438 63.9918 687.306 63.9918H683.454C683.406 63.9918 683.382 63.9678 683.382 63.9198V57.2478C683.382 57.1158 683.31 57.0438 683.178 57.0438H681.894C681.762 57.0438 681.69 57.1158 681.69 57.2478V65.2398C681.69 65.3718 681.762 65.4438 681.894 65.4438ZM695.08 65.4438H696.472C696.616 65.4438 696.688 65.3478 696.64 65.2158L694.084 57.2118C694.048 57.1038 693.976 57.0438 693.856 57.0438H692.092C691.972 57.0438 691.9 57.1038 691.864 57.2118L689.308 65.2158C689.26 65.3478 689.332 65.4438 689.476 65.4438H690.868C690.988 65.4438 691.06 65.3838 691.096 65.2758L691.432 64.1598C691.444 64.1118 691.468 64.0998 691.504 64.0998H694.444C694.48 64.0998 694.504 64.1118 694.516 64.1598L694.852 65.2758C694.888 65.3838 694.96 65.4438 695.08 65.4438ZM691.852 62.7078L692.92 59.0478C692.944 58.9878 692.992 58.9878 693.016 59.0478L694.096 62.7078C694.108 62.7678 694.084 62.7918 694.036 62.7918H691.912C691.864 62.7918 691.84 62.7678 691.852 62.7078ZM698.858 65.4438H700.13C700.262 65.4438 700.334 65.3718 700.334 65.2398L700.322 60.2838C700.322 60.2118 700.37 60.1998 700.406 60.2598L703.418 65.2998C703.478 65.3958 703.55 65.4438 703.658 65.4438H704.882C705.014 65.4438 705.086 65.3718 705.086 65.2398V57.2478C705.086 57.1158 705.014 57.0438 704.882 57.0438H703.622C703.49 57.0438 703.418 57.1158 703.418 57.2478V62.1438C703.418 62.2158 703.37 62.2278 703.334 62.1678L700.334 57.1758C700.274 57.0798 700.202 57.0438 700.094 57.0438H698.858C698.726 57.0438 698.654 57.1158 698.654 57.2478V65.2398C698.654 65.3718 698.726 65.4438 698.858 65.4438Z" fill="#FEFCF7"/>
</g>
</svg>
